<svg width="120" height="120" viewBox="0 0 120 120" fill="none" xmlns="http://www.w3.org/2000/svg">
<path fill-rule="evenodd" clip-rule="evenodd" d="M40 0H30V10H20V20H10V30H0V40V50V60V70V80V90H10V100H20V110H30V120H40H50H60H70H80H90V110H100V100H110V90H120V80V70V60V50V40V30H110V20H100V10H90V0H80H70H60H50H40Z" fill="#FDE033"/>
<rect x="50" y="30" width="10" height="10" fill="#242424"/>
<rect x="40" y="40" width="10" height="10" fill="#242424"/>
<rect x="30" y="50" width="10" height="10" fill="#242424"/>
<rect x="30" y="60" width="10" height="10" fill="#242424"/>
<rect x="40" y="70" width="10" height="10" fill="#242424"/>
<rect x="50" y="80" width="10" height="10" fill="#242424"/>
<rect x="60" y="80" width="10" height="10" fill="#242424"/>
<rect x="70" y="70" width="10" height="10" fill="#242424"/>
<rect x="60" y="30" width="10" height="10" fill="#242424"/>
<rect x="70" y="40" width="10" height="10" fill="#242424"/>
<rect x="80" y="30" width="10" height="10" fill="#242424"/>
<rect x="80" y="40" width="10" height="10" fill="#242424"/>
<rect x="80" y="50" width="10" height="10" fill="#242424"/>
<rect x="70" y="50" width="10" height="10" fill="#242424"/>
<rect x="60" y="50" width="10" height="10" fill="#242424"/>
</svg>
