<svg width="122" height="20" viewBox="0 0 122 20" fill="none" xmlns="http://www.w3.org/2000/svg">
<path d="M6.71871 6.26971C4.67556 6.26939 2.6756 6.81072 0.95833 7.82888L2.43908 9.96394C3.62963 9.30394 4.99298 8.95411 6.38312 8.95211C7.94343 8.95211 9.01591 9.8462 9.01591 10.9822V11.4213C7.7122 11.0588 6.34761 10.9175 4.98887 11.0045C2.22112 11.1954 0 12.6686 0 15.3605C0 17.5879 2.1277 19.4972 4.78474 19.4972C5.5932 19.5006 6.39236 19.3385 7.12423 19.0226C7.8561 18.7067 8.50231 18.2449 9.01591 17.6707V19.2172H12.4583V11.3322C12.4583 8.16297 10.3133 6.26971 6.71871 6.26971ZM9.01591 15.0519C8.58587 15.5744 8.02994 15.998 7.39183 16.2895C6.75371 16.5811 6.05079 16.7325 5.3383 16.732C3.95442 16.732 3.08257 15.997 3.08257 15.0679C3.08257 13.5723 5.39365 12.7227 9.01591 13.6678V15.0519Z" fill="black"/>
<path d="M46.2285 9.37218V6.59429H41.7864V3.11322H38.0464V6.59429H35.085V9.37218H38.0464V14.807C38.0464 17.607 39.5687 19.4749 43.4504 19.4749C44.6544 19.466 45.8362 19.177 46.8859 18.6348L45.0765 16.0797C44.4522 16.3243 43.775 16.4331 43.0976 16.3979C42.3399 16.2802 41.7725 15.8156 41.7725 14.6033V9.37218H46.2285Z" fill="black"/>
<path d="M79.4266 9.37218V6.59429H74.9809V3.11322H71.241V6.59429H68.2795V9.37218H71.241V14.807C71.241 17.607 72.7633 19.4749 76.6485 19.4749C77.8513 19.4657 79.0319 19.1767 80.0805 18.6348L78.2884 16.0797C77.6652 16.324 76.9892 16.4329 76.3129 16.3979C75.5518 16.2802 74.9844 15.8156 74.9844 14.6033V9.37218H79.4266Z" fill="black"/>
<path d="M33.5935 2.89687C33.5935 3.3374 33.4515 3.76804 33.1854 4.13432C32.9193 4.50062 32.541 4.78611 32.0985 4.9547C31.656 5.12328 31.169 5.16738 30.6993 5.08144C30.2295 4.9955 29.798 4.78336 29.4593 4.47185C29.1206 4.16035 28.89 3.76347 28.7965 3.33141C28.7031 2.89934 28.751 2.45148 28.9343 2.04448C29.1176 1.63749 29.4281 1.28963 29.8263 1.04488C30.2245 0.80013 30.6928 0.669495 31.1717 0.669495C31.8141 0.669495 32.4301 0.904158 32.8842 1.32187C33.3383 1.73958 33.5935 2.30613 33.5935 2.89687Z" fill="black"/>
<path d="M33.0506 6.5943H29.3037V19.2108H33.0506V6.5943Z" fill="black"/>
<path d="M23.9548 6.5943L20.2876 15.7743L16.6238 6.5943H12.8804L17.9212 19.2108H18.9175H21.6576H22.6574L27.6947 6.5943H23.9548Z" fill="black"/>
<path d="M54.1649 6.26979C52.75 6.29861 51.3758 6.71083 50.2147 7.45481C49.0535 8.1988 48.1568 9.24142 47.6371 10.452C47.1174 11.6627 46.9977 12.9875 47.2931 14.2604C47.5885 15.5333 48.2858 16.6978 49.2976 17.6078C50.3095 18.5178 51.5908 19.1329 52.981 19.376C54.3714 19.6192 55.8087 19.4795 57.113 18.9746C58.4174 18.4696 59.5307 17.6218 60.3135 16.5374C61.0962 15.4531 61.5136 14.1803 61.5132 12.8787C61.5028 12.0009 61.3044 11.1336 60.9295 10.3264C60.5545 9.51908 60.0103 8.78768 59.3279 8.17393C58.6455 7.56018 57.8383 7.07612 56.9523 6.7494C56.0664 6.42268 55.1192 6.25971 54.1649 6.26979ZM54.1649 16.3248C53.4376 16.3104 52.7312 16.0989 52.1342 15.7168C51.5371 15.3347 51.0759 14.7991 50.8084 14.177C50.5409 13.5549 50.479 12.874 50.6304 12.2198C50.7818 11.5654 51.1399 10.9667 51.6596 10.4988C52.1795 10.0308 52.8378 9.71438 53.5523 9.58908C54.2668 9.46377 55.0056 9.53516 55.6762 9.79438C56.3467 10.0536 56.9191 10.4891 57.3217 11.0463C57.7243 11.6034 57.9392 12.2575 57.9394 12.9265C57.9284 13.8373 57.5247 14.7069 56.8169 15.3442C56.1091 15.9814 55.1552 16.3341 54.1649 16.3248Z" fill="black"/>
<path d="M68.1248 17.2697C68.1248 17.7103 67.9828 18.1409 67.7167 18.5072C67.4505 18.8735 67.0723 19.159 66.6298 19.3276C66.1873 19.4962 65.7003 19.5403 65.2305 19.4544C64.7608 19.3684 64.3293 19.1563 63.9906 18.8447C63.6519 18.5332 63.4212 18.1364 63.3278 17.7043C63.2343 17.2722 63.2823 16.8244 63.4656 16.4174C63.6489 16.0104 63.9593 15.6625 64.3576 15.4177C64.7558 15.173 65.2241 15.0424 65.703 15.0424C66.3453 15.0424 66.9613 15.2771 67.4155 15.6947C67.8697 16.1124 68.1248 16.679 68.1248 17.2697Z" fill="black"/>
<path d="M93.0486 13.4801C93.1147 13.0764 93.1538 12.6694 93.166 12.2614C93.166 8.66894 90.7138 6.25702 87.0634 6.25702C82.9395 6.25702 80.061 8.97758 80.061 12.8659C80.061 16.6843 83.1748 19.4781 87.4582 19.4781C89.4651 19.4837 91.4112 18.8457 92.9625 17.6739L93.0451 17.6039L91.3608 15.1761C90.3382 15.9889 89.0469 16.4579 87.6964 16.5061C85.5689 16.5061 84.0604 15.4179 83.8148 13.5787H93.0451L93.0486 13.4801ZM83.8978 11.2209C84.0225 10.5632 84.4036 9.97001 84.9699 9.55236C85.5361 9.13471 86.2484 8.92131 86.9738 8.9521C88.4303 8.9521 89.4399 9.80175 89.5199 11.2209H83.8978Z" fill="black"/>
<path d="M106.097 14.9787C105.099 15.9083 103.757 16.4581 102.337 16.5188C99.6731 16.5188 98.2818 14.721 98.2818 12.8564C98.2818 10.7085 99.9426 9.24168 102.23 9.24168C103.468 9.26168 104.648 9.72785 105.517 10.5399L107.395 8.2298L107.323 8.15662C106.136 6.97611 104.163 6.26971 102.046 6.26971C97.7287 6.26971 94.5974 9.05072 94.5974 12.8786C94.5974 16.7065 97.7287 19.4908 102.046 19.4908C104.23 19.4908 106.391 18.7017 107.689 17.4352L107.758 17.3652L106.097 14.9787Z" fill="black"/>
<path d="M109.177 0.679016H112.885V7.40568C113.903 6.6795 115.15 6.28043 116.438 6.26973C120.016 6.26973 121.738 8.02617 121.738 11.9559V19.2076H118.03V12.1213C117.998 10.1549 117.227 9.49308 115.449 9.49308C114.917 9.50752 114.399 9.65082 113.947 9.90839C113.496 10.166 113.125 10.5286 112.875 10.96V19.2076H109.177V0.679016Z" fill="black"/>
</svg>
